{
  "accessors": [
    {
      "bufferView": 1,
      "componentType": 5126,
      "count": 1624,
      "max": [
        21.19099998474121,
        -4.0,
        -83.53800201416016
      ],
      "min": [
        -32.691001892089844,
        -41.0,
        -84.96199798583984
      ],
      "type": "VEC3"
    },
    {
      "bufferView": 1,
      "byteOffset": 19488,
      "componentType": 5126,
      "count": 1624,
      "max": [
        0.9993535280227661,
        1.0,
        1.0
      ],
      "min": [
        -0.9993535280227661,
        -1.0,
        -1.0
      ],
      "type": "VEC3"
    },
    {
      "bufferView": 0,
      "componentType": 5125,
      "count": 4122,
      "type": "SCALAR"
    },
    {
      "bufferView": 1,
      "byteOffset": 38976,
      "componentType": 5126,
      "count": 788,
      "max": [
        18.008100509643555,
        -9.22029972076416,
        -83.53800201416016
      ],
      "min": [
        -29.508100509643555,
        -35.779701232910156,
        -84.96199798583984
      ],
      "type": "VEC3"
    },
    {
      "bufferView": 1,
      "byteOffset": 48432,
      "componentType": 5126,
      "count": 788,
      "max": [
        0.9944518804550171,
        0.9787482023239136,
        1.0
      ],
      "min": [
        -0.9944523572921753,
        -0.9787505865097046,
        -1.0
      ],
      "type": "VEC3"
    },
    {
      "bufferView": 0,
      "byteOffset": 16488,
      "componentType": 5125,
      "count": 1908,
      "type": "SCALAR"
    },
    {
      "bufferView": 1,
      "byteOffset": 57888,
      "componentType": 5126,
      "count": 31265,
      "max": [
        20.43400001525879,
        -0.5,
        -35.224998474121094
      ],
      "min": [
        -31.93400001525879,
        -50.5,
        -91.0
      ],
      "type": "VEC3"
    },
    {
      "bufferView": 1,
      "byteOffset": 433068,
      "componentType": 5126,
      "count": 31265,
      "max": [
        1.0,
        1.0,
        1.0
      ],
      "min": [
        -1.0,
        -1.0,
        -1.0
      ],
      "type": "VEC3"
    },
    {
      "bufferView": 0,
      "byteOffset": 24120,
      "componentType": 5125,
      "count": 168699,
      "type": "SCALAR"
    },
    {
      "bufferView": 1,
      "byteOffset": 808248,
      "componentType": 5126,
      "count": 27519,
      "max": [
        5.800000190734863,
        -7.3968000411987305,
        -35.224998474121094
      ],
      "min": [
        -14.193400382995605,
        -48.0,
        -88.0
      ],
      "type": "VEC3"
    },
    {
      "bufferView": 1,
      "byteOffset": 1138476,
      "componentType": 5126,
      "count": 27519,
      "max": [
        1.0,
        1.0,
        1.0
      ],
      "min": [
        -0.9999894499778748,
        -1.0,
        -0.9983636140823364
      ],
      "type": "VEC3"
    },
    {
      "bufferView": 0,
      "byteOffset": 698916,
      "componentType": 5125,
      "count": 148002,
      "type": "SCALAR"
    },
    {
      "bufferView": 1,
      "byteOffset": 1468704,
      "componentType": 5126,
      "count": 1087,
      "max": [
        4.481400012969971,
        -35.35369873046875,
        -82.6792984008789
      ],
      "min": [
        -12.928199768066406,
        -43.0,
        -86.67769622802734
      ],
      "type": "VEC3"
    },
    {
      "bufferView": 1,
      "byteOffset": 1481748,
      "componentType": 5126,
      "count": 1087,
      "max": [
        0.9976065158843994,
        0.8952167630195618,
        0.3873555064201355
      ],
      "min": [
        -0.9311008453369141,
        -1.0,
        -0.8970108032226563
      ],
      "type": "VEC3"
    },
    {
      "bufferView": 0,
      "byteOffset": 1290924,
      "componentType": 5125,
      "count": 3306,
      "type": "SCALAR"
    },
    {
      "bufferView": 1,
      "byteOffset": 1494792,
      "componentType": 5126,
      "count": 560,
      "max": [
        4.625,
        -35.0,
        -82.3948974609375
      ],
      "min": [
        -13.071900367736816,
        -39.26129913330078,
        -85.78890228271484
      ],
      "type": "VEC3"
    },
    {
      "bufferView": 1,
      "byteOffset": 1501512,
      "componentType": 5126,
      "count": 560,
      "max": [
        0.928410530090332,
        0.9999943971633911,
        0.39706623554229736
      ],
      "min": [
        -0.9271211624145508,
        -0.19191919267177582,
        -0.7879636883735657
      ],
      "type": "VEC3"
    },
    {
      "bufferView": 0,
      "byteOffset": 1304148,
      "componentType": 5125,
      "count": 1677,
      "type": "SCALAR"
    }
  ],
  "asset": {
    "extras": {
      "author": "Squirmy Worm (https://sketchfab.com/squirmyworm064)",
      "license": "CC-BY-4.0 (http://creativecommons.org/licenses/by/4.0/)",
      "source": "https://sketchfab.com/3d-models/dratini-b9a4d256961444a998d1f9f242bbb8ef",
      "title": "Dratini"
    },
    "generator": "Sketchfab-15.30.0",
    "version": "2.0"
  },
  "bufferViews": [
    {
      "buffer": 0,
      "byteLength": 1310856,
      "name": "floatBufferViews",
      "target": 34963
    },
    {
      "buffer": 0,
      "byteLength": 1508232,
      "byteOffset": 1310856,
      "byteStride": 12,
      "name": "floatBufferViews",
      "target": 34962
    }
  ],
  "buffers": [
    {
      "byteLength": 2819088,
      "uri": "scene.bin"
    }
  ],
  "extensionsUsed": [
    "KHR_materials_emissive_strength"
  ],
  "materials": [
    {
      "doubleSided": true,
      "emissiveFactor": [
        0.22232376186523486,
        0.21088528720640676,
        0.09205183137220846
      ],
      "extensions": {
        "KHR_materials_emissive_strength": {
          "emissiveStrength": 10.0
        }
      },
      "name": "color_16104991",
      "pbrMetallicRoughness": {
        "baseColorFactor": [
          0.960784,
          0.745098,
          0.121569,
          1.0
        ],
        "metallicFactor": 0.0
      }
    },
    {
      "doubleSided": true,
      "emissiveFactor": [
        0.08515277748376329,
        0.08238944406864751,
        0.05092312917369994
      ],
      "extensions": {
        "KHR_materials_emissive_strength": {
          "emissiveStrength": 10.0
        }
      },
      "name": "color_16373882",
      "pbrMetallicRoughness": {
        "baseColorFactor": [
          0.976471,
          0.847059,
          0.478431,
          1.0
        ],
        "metallicFactor": 0.0
      }
    },
    {
      "doubleSided": true,
      "name": "color_16448250",
      "pbrMetallicRoughness": {
        "baseColorFactor": [
          0.980392,
          0.980392,
          0.980392,
          1.0
        ],
        "metallicFactor": 0.0
      }
    },
    {
      "doubleSided": true,
      "name": "color_16741836",
      "pbrMetallicRoughness": {
        "baseColorFactor": [
          1.0,
          0.35260612693710275,
          0.7502451802560461,
          1.0
        ],
        "metallicFactor": 0.0
      }
    },
    {
      "doubleSided": true,
      "name": "color_2829873",
      "pbrMetallicRoughness": {
        "baseColorFactor": [
          0.168627,
          0.180392,
          0.192157,
          1.0
        ],
        "metallicFactor": 0.0
      }
    },
    {
      "doubleSided": true,
      "name": "color_9519000",
      "pbrMetallicRoughness": {
        "baseColorFactor": [
          0.568627,
          0.247059,
          0.596078,
          1.0
        ],
        "metallicFactor": 0.0
      }
    }
  ],
  "meshes": [
    {
      "name": "Object_0",
      "primitives": [
        {
          "attributes": {
            "NORMAL": 1,
            "POSITION": 0
          },
          "indices": 2,
          "material": 0,
          "mode": 4
        }
      ]
    },
    {
      "name": "Object_1",
      "primitives": [
        {
          "attributes": {
            "NORMAL": 4,
            "POSITION": 3
          },
          "indices": 5,
          "material": 1,
          "mode": 4
        }
      ]
    },
    {
      "name": "Object_2",
      "primitives": [
        {
          "attributes": {
            "NORMAL": 7,
            "POSITION": 6
          },
          "indices": 8,
          "material": 2,
          "mode": 4
        }
      ]
    },
    {
      "name": "Object_3",
      "primitives": [
        {
          "attributes": {
            "NORMAL": 10,
            "POSITION": 9
          },
          "indices": 11,
          "material": 3,
          "mode": 4
        }
      ]
    },
    {
      "name": "Object_4",
      "primitives": [
        {
          "attributes": {
            "NORMAL": 13,
            "POSITION": 12
          },
          "indices": 14,
          "material": 4,
          "mode": 4
        }
      ]
    },
    {
      "name": "Object_5",
      "primitives": [
        {
          "attributes": {
            "NORMAL": 16,
            "POSITION": 15
          },
          "indices": 17,
          "material": 5,
          "mode": 4
        }
      ]
    }
  ],
  "nodes": [
    {
      "children": [
        1
      ],
      "matrix": [
        1.0,
        0.0,
        0.0,
        0.0,
        0.0,
        -1.0,
        -4.440892098500626e-16,
        0.0,
        0.0,
        4.440892098500626e-16,
        -1.0,
        0.0,
        0.0,
        0.0,
        0.0,
        1.0
      ],
      "name": "Sketchfab_model"
    },
    {
      "children": [
        2,
        3,
        4,
        5,
        6,
        7
      ],
      "name": "tinker.obj.cleaner.materialmerger.gles"
    },
    {
      "mesh": 0,
      "name": "Object_2"
    },
    {
      "mesh": 1,
      "name": "Object_3"
    },
    {
      "mesh": 2,
      "name": "Object_4"
    },
    {
      "mesh": 3,
      "name": "Object_5"
    },
    {
      "mesh": 4,
      "name": "Object_6"
    },
    {
      "mesh": 5,
      "name": "Object_7"
    }
  ],
  "scene": 0,
  "scenes": [
    {
      "name": "Sketchfab_Scene",
      "nodes": [
        0
      ]
    }
  ]
}
